<svg xmlns="http://www.w3.org/2000/svg"  viewBox="0 0 68 68" width="53px" height="53px"><path fill="#4f5d99" d="M39.6287689,40.9797401H28.3662167c-2.801897,0-4.8096943-2.7027512-4.0009594-5.3859711 l0.8344536-2.7700844c0.1309261-0.433075,0.1981964-0.8845482,0.1981964-1.3372765v-2.773737 c0-4.7497463,3.8504295-8.6001759,8.600174-8.6001759h0.0000191c4.7497444,0,8.600174,3.8504295,8.600174,8.6001759v2.773737 c0,0.4527283,0.0660744,0.9042015,0.1969986,1.3372765l0.8344536,2.7700844 C44.4384651,38.276989,42.4306641,40.9797401,39.6287689,40.9797401z"/><path fill="#ed524e" d="M46.0892181,52.4130745c0.285675,0,0.5172653-0.2315865,0.5172653-0.5172615v-3.200489 c0-5.0773773-4.1158066-9.1933441-9.1931839-9.1933441l-6.8304768-0.0009575 c-5.078661,0-9.1943035,4.1169243-9.1943035,9.1943016v3.200489c0,0.285675,0.2315865,0.5172615,0.5172634,0.5172615 H46.0892181z"/><path fill="#ffcbba" d="M37.7090607,39.5022469v4.0670357h-7.4231358v-4.0670357 c0.3793068-0.5897179,0.5811768-1.2761002,0.5811768-1.9772377V35.17342h6.2607822v2.3515892 C37.1278839,38.2261467,37.3297539,38.912529,37.7090607,39.5022469z"/><path fill="#efb7a8" d="M37.1278839,35.17342v2.300209c-0.9212914,0.5346947-1.9906807,0.8405762-3.1309891,0.8405762 c-1.1403656,0-2.2096977-0.3058815-3.1297932-0.8405762V35.17342H37.1278839z"/><path fill="#e9e9ff" d="M37.7089806,52.4130745V39.5020638c0,3.2619781-7.4231358,3.2619781-7.4231358,0v12.9110107H37.7089806z"/><path fill="#ffcbba" d="M39.7988548,26.7862206v5.2458878c0,3.2043266-2.5976219,5.8019485-5.8019485,5.8019485h-0.0000114 c-3.2036743,0-5.8007641-2.5970917-5.8007641-5.800766v-3.3506031c0-0.7571659,0.6138039-1.3709717,1.3709717-1.3709717 h3.4218769c0.3892403,0,0.7674332-0.1293964,1.0750923-0.3678322l1.4978142-1.1608047 c0.3076591-0.2384357,0.6858521-0.3678322,1.0750923-0.3678322h1.790905 C39.185051,25.415247,39.7988548,26.0290527,39.7988548,26.7862206z"/><circle cx="31.465" cy="30.646" r=".515" fill="#4f5d99"/><circle cx="36.403" cy="30.646" r=".515" fill="#4f5d99"/><path fill="#efb7a8" d="M34.0490036,31.5161438v1.1405106c0,0.1207314-0.0965614,0.222126-0.222126,0.222126 c-0.1207352,0-0.2174149-0.1013947-0.2174149-0.222126v-1.1405106c0-0.1207314,0.0966797-0.2221279,0.2174149-0.2221279 C33.9524422,31.2940159,34.0490036,31.3954124,34.0490036,31.5161438z"/><path fill="#4f5d99" d="M37.4830589,29.5113564l-1.9053764-0.0002098 c-0.1207581-0.000021-0.2221947-0.0966873-0.2222176-0.2223625 c-0.0000229-0.1208382,0.1013756-0.2175846,0.2221336-0.2175636l1.9053764,0.0002079 c0.1207581,0.0000229,0.2221909,0.0968056,0.2222176,0.2176437 C37.7052155,29.4147491,37.603817,29.5113773,37.4830589,29.5113564z"/><path fill="#4f5d99" d="M32.4173889,29.5113564l-1.9053764-0.0002098 c-0.1207581-0.000021-0.2221947-0.0966873-0.2222176-0.2223625 c-0.0000248-0.1208382,0.1013737-0.2175846,0.2221317-0.2175636l1.9053783,0.0002079 c0.1207542,0.0000229,0.2221909,0.0968056,0.2222137,0.2176437 C32.6395454,29.4147491,32.538147,29.5113773,32.4173889,29.5113564z"/><g><path fill="#ffcbba" d="M28.1983471,28.6087494V32.48349c-1.0749836,0-1.9414387-0.8666611-1.9414387-1.9416428 C26.2569084,29.4754086,27.1233635,28.6087494,28.1983471,28.6087494z"/><path fill="#efb7a8" d="M28.1983471,28.6082039v3.8717346c-0.0607224,0-0.1216297,0-0.1825371-0.0077972V28.616003 C28.0767174,28.6082039,28.1376247,28.6082039,28.1983471,28.6082039z"/></g><g><path fill="#ffcbba" d="M39.7988548,28.6087494V32.48349c1.0749817,0,1.9414406-0.8666611,1.9414406-1.9416428 C41.7402954,29.4754086,40.8738365,28.6087494,39.7988548,28.6087494z"/><path fill="#efb7a8" d="M39.7988548,28.6082039v3.8717346c0.0607224,0,0.1216316,0,0.1825371-0.0077972V28.616003 C39.9204865,28.6082039,39.8595772,28.6082039,39.7988548,28.6082039z"/></g><g><path fill="#efb7a8" d="M35.6479034,33.9768906l-3.6373405-0.0000038c0.000061,1.0093117,0.8136749,1.822834,1.8227921,1.822834 C34.8344574,35.7997208,35.6479683,34.9861984,35.6479034,33.9768906z"/></g><g><path fill="#70c1f9" d="M65.0900879,28.9208965l-8.1101074-2.1499023 c-0.4099121-1.3500977-0.9697266-2.6899414-1.6298828-3.9501953l4.2299805-7.2294922 c0.2600098-0.4702148,0.2099609-1.050293-0.1899414-1.4404297l-5.5300293-5.5400391 c-0.3999023-0.3896484-1-0.4897461-1.4699707-0.199707l-7.2399902,4.2299805l-0.6799316-0.3398438 c-0.6401367-0.3203125-1.3000488-0.6000977-1.9799805-0.8500977 c-0.4301758-0.1704102-0.8400879-0.300293-1.2800293-0.4702148l-2.1201172-8.0898438 c-0.1499023-0.5200195-0.619873-0.8798828-1.1699219-0.8798828h-7.8500977 c-0.5397949,0-1.0300293,0.3598633-1.1599121,0.8798828l-0.0400391,0.1098633l-0.2299805,0.8901367L28.3100586,5.241209 l-1.5297852,5.7397461c-1.3701172,0.4599609-2.6901855,1-3.9501953,1.6601563l-7.2299805-4.2299805 c-0.4699707-0.2900391-1.0698242-0.1899414-1.4699707,0.199707l-3.5500488,3.5600586l-1.2600098,1.2602539 L8.6000977,14.150877c-0.3898926,0.3901367-0.4499512,0.9702148-0.1899414,1.4404297l3.8198242,6.5698242L12.25,22.20117 l0.380127,0.6196289c-0.0400391,0.0800781-0.0800781,0.1303711-0.0900879,0.2099609 c-0.6298828,1.2001953-1.1298828,2.4604492-1.5297852,3.7602539l-8.1101074,2.1298828 C2.3701172,29.0512676,2,29.5209942,2,30.0707989v7.8203144c0,0.5898438,0.3701172,1.0400391,0.9001465,1.1699219 l8.1101074,2.1499023c0.4099121,1.3500977,0.9599609,2.6899414,1.6398926,3.9301758l-4.2399902,7.2397461 c-0.2600098,0.4702148-0.1999512,1.0800781,0.1899414,1.4501953l5.5300293,5.5498047 c0.4001465,0.3803711,1,0.4702148,1.4699707,0.1899414l7.2299805-4.2294922 c0.2199707,0.1098633,0.4501953,0.2397461,0.6801758,0.3398438c0.6499023,0.3198242,1.3098145,0.5996094,1.9897461,0.8598633 c0.420166,0.1499023,0.8500977,0.300293,1.2802734,0.4399414l2.1298828,8.1201172 c0.1298828,0.5297852,0.6201172,0.8901367,1.1599121,0.8901367h7.8500977 c0.5500488,0,1.0200195-0.3603516,1.1699219-0.8901367l2.1201172-8.1201172 c1.3798828-0.4399414,2.6999512-0.9799805,3.9399414-1.6396484l0.0200195,0.0195313l1.0100098,0.6000977l0.619873,0.3598633 l3.9001465,2.2602539l1.6899414,0.9897461c0.1298828,0.0800781,0.2800293,0.1303711,0.4299316,0.1704102 c0.3400879,0.0395508,0.6999512-0.0703125,0.9602051-0.300293c0.0397949-0.0200195,0.0598145-0.0400391,0.079834-0.0600586 l4.8200684-4.8295898l0.7099609-0.7202148c0.3999023-0.3701172,0.4499512-0.9799805,0.1899414-1.4501953 l-3.8398438-6.5395508l-0.3901367-0.7001953c0.0300293-0.0800781,0.0700684-0.1298828,0.0900879-0.2099609 c0.619873-1.1801758,1.1499023-2.4399414,1.5397949-3.7202148l8.1101074-2.1499023 C65.6201172,38.9311523,66,38.480957,66,37.8911133v-7.8203144C66,29.5209942,65.6201172,29.0512676,65.0900879,28.9208965z M33.9902344,50.1508789c-8.920166,0-16.170166-7.2197266-16.170166-16.159668 c0-8.9204121,7.25-16.1704121,16.170166-16.1704121c8.9199219,0,16.1699219,7.25,16.1699219,16.1704121 C50.1601563,42.9311523,42.9101563,50.1508789,33.9902344,50.1508789z"/><path fill="#4f5d99" d="M33.9904327,15.3510723c-10.2807827,0-18.6403351,8.3598061-18.6403351,18.6403332 c0,10.3013191,8.3595524,18.6296883,18.6403351,18.6296883c10.2805252,0,18.6296844-8.3283691,18.6296844-18.6296883 C52.6201172,23.7108784,44.2709579,15.3510723,33.9904327,15.3510723z M33.9902344,50.1508789 c-8.920166,0-16.170166-7.2197266-16.170166-16.159668c0-8.9204121,7.25-16.1704121,16.170166-16.1704121 c8.9199219,0,16.1699219,7.25,16.1699219,16.1704121C50.1601563,42.9311523,42.9101563,50.1508789,33.9902344,50.1508789z"/><g opacity=".2"><path fill="#fff" d="M46.8031044,56.3176422l-0.6206856-0.3574371l-1.0162506-0.6018486l-0.018837-0.0192947 c-1.2418327,0.6588173-2.5594673,1.2046165-3.9331551,1.6373978l-2.1262245,8.1291008 c-0.150692,0.52742-0.6211472,0.8848572-1.1669464,0.8848572h-7.8470097 c-0.5457993,0-1.0350895-0.3574371-1.1669445-0.8848572l-2.1262283-8.1291008 c-0.4327793-0.1323166-0.8655605-0.2820892-1.2799625-0.4327812c-0.6771965-0.26371-1.3360138-0.5457993-1.9943733-0.8655586 L12.5353746,23.0284882l-0.2820883-0.8278866l-0.018837-0.037672l-2.9169006-8.7318678l1.2606668-1.2606678 l3.5568829-3.5568829c0.3951073-0.3951063,0.9974155-0.4888296,1.4678688-0.2067413l7.2258654,4.2340775 c1.2606678-0.6588182,2.5783043-1.2046175,3.9519901-1.6557741l1.5243778-5.7400794l0.3385983-1.3543904l0.2255783-0.8848562 L46.8031044,56.3176422z"/><path fill="#fff" d="M58.6774521,54.5488472l-4.8175507,4.8359261 c-0.018837,0.0192986-0.0372124,0.037674-0.0748863,0.0569687L34.4587631,2.008791h3.4622421 c0.5457993,0,1.0162544,0.357434,1.1669464,0.8839371l2.1262245,8.0923452 c0.4327812,0.1690693,0.8471832,0.3004646,1.2799644,0.4704533c0.6771965,0.2444153,1.3360138,0.5265026,1.9755363,0.8462639 l10.9711113,32.6312561l0.3009262,0.9032326L58.6774521,54.5488472z"/></g></g></svg>